<svg width="69" height="48" viewBox="0 0 69 48" fill="none" xmlns="http://www.w3.org/2000/svg">
<path d="M45.6202 47.1226H0V0.529785H45.6202V16.4713H43.5054V2.68973H2.11264V44.9626H43.5054V31.0769H45.6202V47.1226Z" fill="#E5E5E5"/>
<path d="M9.31934 19.0414H11.4386V23.1666L14.4713 19.0414H17.014L13.5314 23.4111L17.2911 28.5098H14.6043L11.4386 24.0043V28.5098H9.31934V19.0414Z" fill="white"/>
<path d="M22.8177 26.5581C24.5269 26.5581 25.4136 25.3241 25.4136 23.7755C25.4136 22.0955 24.2697 20.9929 22.8177 20.9929C21.3279 20.9929 20.2239 22.0955 20.2239 23.7755C20.2239 25.349 21.3789 26.5581 22.8177 26.5581ZM22.8177 19.0253C25.5555 19.0253 27.5995 20.848 27.5995 23.7755C27.5995 26.5581 25.5555 28.5256 22.8177 28.5256C20.082 28.5256 18.0381 26.7007 18.0381 23.7755C18.0381 21.1106 19.9535 19.0253 22.8177 19.0253Z" fill="white"/>
<path d="M36.511 28.5092L32.115 22.8286V28.5092H30.1265V19.043H31.8224L36.2206 24.7485L36.2162 19.043H38.2025L38.2069 28.5092H36.511Z" fill="white"/>
<path d="M40.7568 19.0414H48.4382V21.0701H45.6561V28.5098H43.5368V21.0701H40.7568V19.0414Z" fill="white"/>
<path d="M58.717 24.4365C58.717 27.33 56.917 28.5073 54.9307 28.5073C52.5476 28.5073 50.8916 27.1149 50.8916 24.3414V19.0458H53.0109V23.8818C53.0109 25.3557 53.4476 26.4787 54.9307 26.4787C56.2142 26.4787 56.5977 25.5187 56.5977 24.0041V19.0458H58.717V24.4365Z" fill="white"/>
<path d="M63.384 21.1015V23.1981H64.151C64.9601 23.1981 65.5942 22.8992 65.5942 22.1023C65.5942 21.5747 65.3326 21.0993 64.3128 21.0993C63.9936 21.0993 63.8207 21.088 63.384 21.1015ZM61.2646 28.5073V19.0458C61.7812 19.0458 64.151 19.0458 64.417 19.0458C66.9464 19.0458 67.8465 20.3295 67.8465 22.0751C67.8465 23.832 66.7868 24.5497 66.2836 24.8078L68.9637 28.5073H66.3944L64.1643 25.2267H63.384V28.5073H61.2646Z" fill="white"/>
</svg>
